<?xml version="1.0" encoding="utf-8"?>
<!-- Generator: Adobe InDesign 4.0 SVG Export Plug-in, SVG Library version: 6.0 build 159 -->
<!DOCTYPE svg PUBLIC "-//W3C//DTD SVG 1.0//EN"    "http://www.w3.org/TR/SVG/DTD/svg10.dtd" [
	<!ENTITY ns_svg "http://www.w3.org/2000/svg">
	<!ENTITY ns_xlink "http://www.w3.org/1999/xlink">
]>
<svg  xmlns="&ns_svg;" xmlns:xlink="&ns_xlink;" width="100%" height="100%" viewBox="0 0 950 600" preserveAspectRatio="none" xml:space="preserve">
<clipPath id="clp1" fill="none">
	<path shape-rendering="crispEdges" stroke="#000000" d="M0,0h960.945v600.945H0z"/>
</clipPath>
<g clip-path="url(#clp1)" fill="none">
	<g transform="matrix(1 0 0 1 0 300.4724)">
		<path fill="#1c1c1c" d="M-19.276-316.346v632.693h992.976v-632.693H-19.276z"/>
	</g>
	<g transform="matrix(1 0 0 1 -117.4291 120.2362)">
		<path fill="#E12D18" d="M112.691,66.142c105.796,0,191.561-85.765,191.561-191.561S218.487-316.98,112.691-316.98
			S-78.87-231.216-78.87-125.419S6.895,66.142,112.691,66.142z"/>
	</g>
	<g transform="matrix(1 0 0 1 170.9961 458.4095)">
		<path fill="#E12D18" d="M-15.728,39.213C4.271,39.213,20.484,23,20.484,3S4.271-33.213-15.728-33.213S-51.941-17-51.941,3
			S-35.728,39.213-15.728,39.213z"/>
	</g>
	<g transform="matrix(1 0 0 1 133.437 117.7677)">
		<path fill="#EFD845" d="M-40.13-77.28c21.396,0,38.74-17.345,38.74-38.74s-17.345-38.74-38.74-38.74s-38.74,17.345-38.74,38.74
			S-61.526-77.28-40.13-77.28z"/>
	</g>
	<g transform="matrix(1 0 0 1 704.6181 690.8504)">
		<path fill="#444C98" d="M233.46,66.142c91.923,0,166.441-74.518,166.441-166.441S325.383-266.741,233.46-266.741
			S67.019-192.223,67.019-100.3S141.537,66.142,233.46,66.142z"/>
	</g>
	<g transform="matrix(1 0 0 1 666.4724 319.874)">
		<path fill="#E12D18" d="M163.215,174.103c27.212,0,49.272-22.06,49.272-49.272s-22.06-49.272-49.272-49.272
			s-49.272,22.06-49.272,49.272S136.003,174.103,163.215,174.103z"/>
	</g>
	<g transform="matrix(1 0 0 1 697.0236 389.3741)">
		<path fill="#EFD845" d="M193.758,158.006c16.107,0,29.165-13.058,29.165-29.165s-13.058-29.165-29.165-29.165
			s-29.165,13.058-29.165,29.165S177.65,158.006,193.758,158.006z"/>
	</g>
	<g transform="matrix(1 0 0 1 745.4843 206.9174)">
		<path fill="#EFD845" d="M123.902-55.547c33.972,0,61.512-27.54,61.512-61.512s-27.54-61.512-61.512-61.512
			s-61.512,27.54-61.512,61.512S89.93-55.547,123.902-55.547z"/>
	</g>
	<g transform="matrix(1 0 0 1 -136.0905 641.5158)">
		<path fill="#7FC197" d="M158.839,53.114c63.443,0,114.874-51.431,114.874-114.874s-51.431-114.874-114.874-114.874
			S43.965-125.203,43.965-61.76S95.395,53.114,158.839,53.114z"/>
	</g>
	<g transform="matrix(1 0 0 1 134.0748 652.1693)">
		<path fill="#EFD845" d="M-1.945,5.398c30.704,0,55.594-24.89,55.594-55.594s-24.89-55.594-55.594-55.594
			s-55.594,24.89-55.594,55.594S-32.649,5.398-1.945,5.398z"/>
	</g>
	<g transform="matrix(1 0 0 1 708.2585 170.3239)">
		<path fill="#7FC197" d="M193.758,158.006c16.107,0,29.165-13.058,29.165-29.165s-13.058-29.165-29.165-29.165
			s-29.165,13.058-29.165,29.165S177.65,158.006,193.758,158.006z"/>
	</g>
	<g transform="matrix(1 0 0 1 -55.833 43.496)">
		<path fill="#444C98" d="M163.215,174.103c27.212,0,49.272-22.06,49.272-49.272s-22.06-49.272-49.272-49.272
			s-49.272,22.06-49.272,49.272S136.003,174.103,163.215,174.103z"/>
	</g>
	<g transform="matrix(1 0 0 1 -128.5926 197.3948)">
		<path fill="#EFD845" d="M193.758,158.006c16.107,0,29.165-13.058,29.165-29.165s-13.058-29.165-29.165-29.165
			s-29.165,13.058-29.165,29.165S177.65,158.006,193.758,158.006z"/>
	</g>
	<g transform="matrix(1 0 0 1 846.3504 124.6299)">
		<path fill="#444C98" d="M-15.728,39.213C4.271,39.213,20.484,23,20.484,3S4.271-33.213-15.728-33.213S-51.941-17-51.941,3
			S-35.728,39.213-15.728,39.213z"/>
	</g>
	<g transform="matrix(1 0 0 1 606.431 -127.4238)">
		<path fill="#7FC197" d="M193.758,158.006c16.107,0,29.165-13.058,29.165-29.165s-13.058-29.165-29.165-29.165
			s-29.165,13.058-29.165,29.165S177.65,158.006,193.758,158.006z"/>
	</g>
</g>
</svg>
